<?xml version="1.0" encoding="UTF-8" standalone="no"?>
<svg
   xmlns:dc="http://purl.org/dc/elements/1.1/"
   xmlns:cc="http://creativecommons.org/ns#"
   xmlns:rdf="http://www.w3.org/1999/02/22-rdf-syntax-ns#"
   xmlns:svg="http://www.w3.org/2000/svg"
   xmlns="http://www.w3.org/2000/svg"
   xmlns:sodipodi="http://sodipodi.sourceforge.net/DTD/sodipodi-0.dtd"
   xmlns:inkscape="http://www.inkscape.org/namespaces/inkscape"
   viewBox="0 0 100 99.999999"
   version="1.1"
   id="svg66"
   sodipodi:docname="redux.svg"
   width="100"
   height="100"
   inkscape:version="0.92.4 (5da689c313, 2019-01-14)">
  <metadata
     id="metadata72">
    <rdf:RDF>
      <cc:Work
         rdf:about="">
        <dc:format>image/svg+xml</dc:format>
        <dc:type
           rdf:resource="http://purl.org/dc/dcmitype/StillImage" />
        <dc:title></dc:title>
      </cc:Work>
    </rdf:RDF>
  </metadata>
  <defs
     id="defs70" />
  <sodipodi:namedview
     pagecolor="#ffffff"
     bordercolor="#666666"
     borderopacity="1"
     objecttolerance="10"
     gridtolerance="10"
     guidetolerance="10"
     inkscape:pageopacity="0"
     inkscape:pageshadow="2"
     inkscape:window-width="1920"
     inkscape:window-height="1001"
     id="namedview68"
     showgrid="false"
     fit-margin-top="0"
     fit-margin-left="0"
     fit-margin-right="0"
     fit-margin-bottom="0"
     inkscape:zoom="2.36"
     inkscape:cx="43.934369"
     inkscape:cy="37.9"
     inkscape:window-x="-9"
     inkscape:window-y="-9"
     inkscape:window-maximized="1"
     inkscape:current-layer="svg66" />
  <g
     id="g64"
     style="fill:#764abc"
     transform="translate(-0.44180936,-0.6)">
    <path
       d="m 65.6,65.4 c 2.9,-0.3 5.1,-2.8 5,-5.8 -0.1,-3 -2.6,-5.4 -5.6,-5.4 h -0.2 c -3.1,0.1 -5.5,2.7 -5.4,5.8 0.1,1.5 0.7,2.8 1.6,3.7 -3.4,6.7 -8.6,11.6 -16.4,15.7 -5.3,2.8 -10.8,3.8 -16.3,3.1 -4.5,-0.6 -8,-2.6 -10.2,-5.9 -3.2,-4.9 -3.5,-10.2 -0.8,-15.5 1.9,-3.8 4.9,-6.6 6.8,-8 -0.4,-1.3 -1,-3.5 -1.3,-5.1 -14.5,10.5 -13,24.7 -8.6,31.4 3.3,5 10,8.1 17.4,8.1 2,0 4,-0.2 6,-0.7 12.8,-2.5 22.5,-10.1 28,-21.4 z"
       id="path58"
       inkscape:connector-curvature="0" />
    <path
       d="M 83.2,53 C 75.6,44.1 64.4,39.2 51.6,39.2 H 50 c -0.9,-1.8 -2.8,-3 -4.9,-3 h -0.2 c -3.1,0.1 -5.5,2.7 -5.4,5.8 0.1,3 2.6,5.4 5.6,5.4 h 0.2 c 2.2,-0.1 4.1,-1.5 4.9,-3.4 H 52 c 7.6,0 14.8,2.2 21.3,6.5 5,3.3 8.6,7.6 10.6,12.8 1.7,4.2 1.6,8.3 -0.2,11.8 -2.8,5.3 -7.5,8.2 -13.7,8.2 -4,0 -7.8,-1.2 -9.8,-2.1 -1.1,1 -3.1,2.6 -4.5,3.6 4.3,2 8.7,3.1 12.9,3.1 9.6,0 16.7,-5.3 19.4,-10.6 2.9,-5.8 2.7,-15.8 -4.8,-24.3 z"
       id="path60"
       inkscape:connector-curvature="0" />
    <path
       d="m 32.4,67.1 c 0.1,3 2.6,5.4 5.6,5.4 h 0.2 c 3.1,-0.1 5.5,-2.7 5.4,-5.8 -0.1,-3 -2.6,-5.4 -5.6,-5.4 h -0.2 c -0.2,0 -0.5,0 -0.7,0.1 -4.1,-6.8 -5.8,-14.2 -5.2,-22.2 0.4,-6 2.4,-11.2 5.9,-15.5 2.9,-3.7 8.5,-5.5 12.3,-5.6 10.6,-0.2 15.1,13 15.4,18.3 1.3,0.3 3.5,1 5,1.5 C 69.3,21.7 59.3,13.3 49.7,13.3 c -9,0 -17.3,6.5 -20.6,16.1 -4.6,12.8 -1.6,25.1 4,34.8 -0.5,0.7 -0.8,1.8 -0.7,2.9 z"
       id="path62"
       inkscape:connector-curvature="0" />
  </g>
</svg>
